Land_normalized_Motion_pl02
version=1
nRows=14
nColumns=43
inDegrees=yes
endheader
time		pelvis_tilt		pelvis_list		pelvis_rotation		pelvis_tx		pelvis_ty		pelvis_tz		hip_flexion_r		hip_adduction_r		hip_rotation_r		knee_angle_r		ankle_angle_r		subtalar_angle_r		mtp_angle_r		hip_flexion_l		hip_adduction_l		hip_rotation_l		knee_angle_l		ankle_angle_l		subtalar_angle_l		mtp_angle_l		lumbar_extension		lumbar_bending		lumbar_rotation		neck_flexion		neck_lateral_bending		neck_rotation		arm_flex_r		arm_add_r		arm_rot_r		elbow_flex_r		pro_sup_r		wrist_flex_r		wrist_dev_r		hand_finger_flex_r		arm_flex_l		arm_add_l		arm_rot_l		elbow_flex_l		pro_sup_l		wrist_flex_l		wrist_dev_l		hand_finger_flex_l		
1.123965		1.940306		1.477295		91.054065		-0.028691		0.528197		0.458226		81.073425		-11.367762		-3.593617		-118.975586		29.506699		-1.143397		4.359611		82.305394		-7.936726		-0.341947		-118.779213		34.074516		-8.601021		-9.999630		-56.031897		-1.481834		2.379301		22.230408		2.864937		0.068511		-14.693617		-28.771611		-32.722613		70.206190		88.719025		-37.645239		-25.000000		53.160934		-10.494873		-30.870594		-14.701180		70.778476		92.002554		-48.911213		-13.105081		89.052661		
1.126894		2.035974		1.457911		91.104348		-0.028841		0.522075		0.456433		81.664094		-11.461931		-3.544920		-119.967523		29.857028		-1.123952		4.414120		83.038680		-8.091856		-0.279823		-119.827928		34.409421		-8.568620		-9.946810		-56.376718		-1.351497		2.268880		22.828695		2.942403		0.171904		-13.057723		-30.233458		-31.550252		71.914317		88.933993		-37.634749		-25.000000		53.393220		-8.711535		-32.398239		-13.114937		72.361078		92.504902		-48.880432		-13.058329		89.128797		
1.129823		2.129574		1.350482		91.124138		-0.029068		0.515872		0.454730		82.356226		-11.575126		-3.440987		-120.945371		30.362280		-0.675251		4.474609		83.862981		-8.274041		-0.187874		-120.866715		34.916308		-8.139544		-9.934317		-56.577127		-1.246954		2.594641		23.386357		2.827157		-0.211744		-11.776939		-31.748182		-30.475018		73.613842		88.451389		-39.458015		-25.000000		54.445898		-6.144447		-34.174232		-10.254690		73.776813		93.751680		-51.017191		-10.847923		89.787187		
1.132753		2.198405		1.204337		91.165346		-0.029235		0.509732		0.453187		83.095694		-11.707063		-3.358051		-121.879239		30.784077		-0.504776		4.477287		84.731467		-8.377251		-0.105773		-121.837687		35.251979		-7.969878		-10.007407		-56.736203		-1.167319		2.697780		23.900960		2.949863		-0.203365		-10.209499		-33.259991		-29.391059		75.182402		88.490672		-40.288481		-25.000000		55.573818		-3.798438		-35.834673		-8.077495		75.227770		94.942107		-51.648924		-9.662771		90.000210		
1.135682		2.259957		1.087986		91.163870		-0.029265		0.503896		0.451725		83.784479		-11.784314		-3.282561		-122.764248		31.134986		-0.405077		4.492224		85.546528		-8.509981		-0.042830		-122.763648		35.501496		-7.958569		-10.033508		-56.932299		-1.116676		2.681880		24.442490		3.007819		-0.240178		-8.419314		-34.809218		-28.192272		76.666745		88.805271		-40.402107		-25.000000		55.797866		-1.488994		-37.412431		-6.258006		76.567310		95.702026		-51.460649		-9.211688		90.000210		
1.138611		2.262459		0.864445		91.146358		-0.029298		0.497851		0.450318		84.639639		-11.895824		-3.125478		-123.658376		31.560004		-0.119359		4.470349		86.475921		-8.623394		-0.005922		-123.680742		35.758572		-7.816837		-10.138064		-56.949419		-1.150526		2.879885		24.885431		3.081788		-0.436018		-6.782518		-36.322217		-27.162895		78.005690		89.056344		-41.213294		-25.000000		56.250031		1.361831		-39.042145		-3.814039		77.747370		96.948773		-51.611926		-7.773517		90.000210		
1.141540		2.240013		0.637684		91.112462		-0.029204		0.491936		0.449008		85.504410		-11.958603		-2.940224		-124.518896		31.921433		0.084000		4.413669		87.398464		-8.739008		0.006516		-124.562145		35.953274		-7.765043		-10.243807		-56.933179		-1.230955		3.024709		25.190911		3.191246		-0.622334		-5.034193		-37.840472		-26.085830		79.247295		89.554082		-41.703490		-25.000000		56.612364		4.357672		-40.563751		-1.464284		78.819873		98.228718		-51.451242		-6.527732		90.000210		
1.144470		2.218414		0.452701		91.083144		-0.029050		0.486226		0.447738		86.300638		-12.036381		-2.790402		-125.353022		32.308054		0.249509		4.346844		88.284467		-8.826973		0.065623		-125.433017		36.040704		-7.703607		-10.359666		-56.905855		-1.347819		3.152341		25.300445		3.530033		-0.695272		-3.122601		-39.361324		-24.874255		80.291234		90.092710		-42.030993		-25.000000		56.959945		7.554833		-42.026968		0.935680		79.748083		99.505097		-51.157011		-5.417330		90.000210		
1.147399		2.097177		0.181776		90.996723		-0.028828		0.480430		0.446595		87.259402		-12.055578		-2.497155		-126.174495		32.622615		0.451607		4.178689		89.214848		-8.932258		0.007536		-126.256218		36.199044		-7.691411		-10.490394		-56.811291		-1.562610		3.345525		25.563440		3.559084		-1.054979		-1.341955		-40.861651		-23.858496		81.380361		90.878355		-42.581336		-25.000000		57.295458		11.108640		-43.320940		3.543897		80.562114		101.095797		-50.930111		-3.849517		90.000210		
1.150328		2.070693		0.041375		90.968534		-0.028631		0.475017		0.445443		88.000317		-12.115982		-2.363197		-126.959704		32.959703		0.532086		4.096043		90.056331		-8.997088		0.094490		-127.100235		36.151924		-7.635456		-10.544344		-56.807008		-1.692744		3.372051		25.662677		3.924654		-1.072417		0.925751		-42.399255		-22.406836		82.173544		91.563811		-42.454160		-25.000000		57.391079		14.496527		-44.532069		5.814409		81.277656		102.181365		-50.432898		-3.305277		90.000210		
1.153258		1.905608		-0.199862		90.889690		-0.028343		0.469464		0.444371		88.932425		-12.134784		-2.041452		-127.751737		33.258576		0.670727		3.884891		90.942063		-9.077338		0.019729		-127.896857		36.205976		-7.588913		-10.584449		-56.692182		-1.964762		3.500341		25.820099		4.062397		-1.379147		2.954375		-43.837175		-21.243758		83.014458		92.548051		-42.701104		-25.000000		57.427834		18.399589		-45.560836		8.530093		81.790891		103.742656		-50.159360		-2.045055		90.000210		
1.156187		1.874615		-0.339308		90.877647		-0.028081		0.464223		0.443329		89.664286		-12.200874		-1.925211		-128.502949		33.576200		0.716822		3.815568		91.770750		-9.096714		0.159204		-128.697076		36.098672		-7.482633		-10.584913		-56.652547		-2.098736		3.467084		25.846426		4.403505		-1.368838		5.533393		-45.271854		-19.567241		83.605533		93.306997		-42.352717		-25.000000		57.342016		22.015880		-46.542799		10.836122		82.246115		104.775082		-49.589783		-1.799750		90.000210		
1.159116		1.753295		-0.501175		90.852613		-0.027867		0.458949		0.442324		90.462415		-12.247924		-1.675698		-129.249257		33.881305		0.755471		3.712090		92.593772		-9.144528		0.165966		-129.491148		36.064525		-7.335049		-10.544791		-56.547698		-2.310255		3.439391		25.758319		4.725915		-1.443907		8.101722		-46.665999		-17.889238		84.102112		94.297445		-42.147551		-24.950952		57.101837		25.913287		-47.342060		13.393144		82.504593		105.984134		-49.145354		-1.319841		90.000210		
1.162045		1.608413		-0.650814		90.850171		-0.027696		0.453785		0.441376		91.237742		-12.301775		-1.388682		-129.974684		34.196954		0.780048		3.571513		93.391659		-9.183731		0.139268		-130.263329		36.036012		-7.155177		-10.470062		-56.450778		-2.533022		3.419292		25.684689		5.060511		-1.557605		10.688976		-48.007103		-16.222995		84.561106		95.333175		-41.899766		-24.768086		56.744582		30.006017		-47.987557		16.118920		82.638374		107.244890		-48.814567		-0.731354		90.000210		
